<svg width="790" height="1182" viewBox="0 0 790 1182" fill="none" xmlns="http://www.w3.org/2000/svg">
<rect width="790" height="1182" fill="#C9D1FC"/>
<path d="M199.977 614.887C199.977 614.887 196.275 659.304 185.947 675.274C156.219 721.251 146.967 773.364 175.547 801.122C204.128 828.881 389.235 832.228 404.277 769.671C416.94 717.006 391.697 710.917 386.24 667.215C383.77 647.442 376.768 605.95 376.768 605.95" fill="#0A0A0A"/>
<path d="M357.022 759.634C356.701 759.593 353.156 818.066 284.795 812.969C237.47 809.446 220.596 759.547 219.505 759.547C224.609 758.47 233.201 756.902 235.467 755.701C242.919 751.722 252.136 747.582 254.541 733.201C255.93 724.918 253.577 682.51 254.301 674.12L326.945 690.232C325.929 707.942 318.825 749.002 343.725 756.269C347.866 757.482 352.33 758.586 357.022 759.634Z" fill="#E98862"/>
<path opacity="0.5" d="M327.961 739.497C326.823 735.853 326.091 732.096 325.776 728.294C324.977 719.617 325.137 710.879 326.251 702.236C311.488 700.254 297.579 694.198 286.105 684.756C284.756 689.706 277.338 711.337 279.393 716.041C283.271 724.935 301.515 739.497 327.961 739.497Z" fill="#0C0C0C"/>
<path d="M318.69 720.729C290.009 723.023 253.141 711.047 246.08 673.028L239.709 638.724C232.65 600.705 247.02 566.199 283.044 559.594C319.067 552.987 351.716 578.869 358.777 616.888L361.597 632.073C364.307 646.664 369.864 716.635 318.69 720.729Z" fill="#E98862"/>
<path d="M350.817 631.749C353.309 631.749 355.329 629.742 355.329 627.266C355.329 624.79 353.309 622.782 350.817 622.782C348.325 622.782 346.305 624.79 346.305 627.266C346.305 629.742 348.325 631.749 350.817 631.749Z" fill="#0C0C0C"/>
<path d="M305.162 640.076C307.653 640.076 309.673 638.069 309.673 635.593C309.673 633.117 307.653 631.109 305.162 631.109C302.67 631.109 300.65 633.117 300.65 635.593C300.65 638.069 302.67 640.076 305.162 640.076Z" fill="#0C0C0C"/>
<path opacity="0.5" d="M330.316 668.111L330.387 668.102C331.846 667.823 333.289 667.465 334.708 667.029C336.828 666.361 339.605 665.255 339.252 663.353C338.851 661.187 328.538 638.909 327.364 636.376C327.316 636.262 327.246 636.159 327.157 636.073C327.068 635.986 326.962 635.919 326.846 635.874C326.731 635.829 326.607 635.808 326.483 635.811C326.358 635.815 326.236 635.844 326.123 635.895C326.01 635.947 325.909 636.021 325.826 636.112C325.742 636.204 325.678 636.311 325.637 636.428C325.596 636.544 325.579 636.668 325.587 636.791C325.595 636.914 325.629 637.035 325.685 637.145C330.083 646.636 337.157 662.235 337.435 663.687C337.194 664.361 333.675 665.629 330.053 666.295C329.815 666.334 329.603 666.465 329.46 666.659C329.318 666.853 329.258 667.094 329.292 667.331C329.327 667.569 329.453 667.783 329.645 667.929C329.836 668.075 330.078 668.14 330.317 668.111H330.316Z" fill="#0C0C0C"/>
<path opacity="0.5" d="M324.912 684.487C330.786 683.756 336.406 681.664 341.316 678.378C341.418 678.313 341.506 678.228 341.575 678.129C341.645 678.03 341.693 677.918 341.719 677.8C341.744 677.683 341.746 677.561 341.725 677.442C341.703 677.324 341.658 677.21 341.592 677.109C341.526 677.008 341.441 676.92 341.341 676.852C341.242 676.783 341.129 676.735 341.011 676.709C340.892 676.684 340.77 676.682 340.65 676.703C340.531 676.725 340.417 676.77 340.315 676.835C329.688 683.647 319.154 684.703 309.854 679.906C309.666 679.804 309.472 679.712 309.274 679.63C309.046 679.556 308.798 679.572 308.582 679.676C308.366 679.78 308.199 679.963 308.116 680.187C308.034 680.411 308.042 680.658 308.139 680.876C308.237 681.094 308.416 681.266 308.638 681.356C308.712 681.386 308.833 681.451 309.001 681.539C313.891 684.073 319.431 685.1 324.912 684.487Z" fill="#0C0C0C"/>
<path d="M210.861 650.538L243.153 644.805C267.632 635.09 275.214 593.09 275.214 593.09C275.214 593.09 304.764 621.969 376.761 605.946C376.761 605.946 362.796 506.202 256.4 534.705C222.088 543.897 197.344 578.096 200.198 623.967C202.204 656.112 210.861 650.538 210.861 650.538Z" fill="#0A0A0A"/>
<path d="M250.475 684.201C239.529 686.208 228.492 676.195 226.472 665.318C224.452 654.442 232.212 646.821 243.16 644.806L250.154 651.06L259.888 682.474L250.475 684.201Z" fill="#E98862"/>
<path d="M334.125 617.177C337.258 615.168 340.875 614.032 344.601 613.888C346.439 613.804 348.28 613.996 350.061 614.456C351.83 614.906 353.535 615.575 355.136 616.448C355.298 616.534 355.42 616.678 355.477 616.852C355.534 617.025 355.52 617.214 355.44 617.378C355.359 617.541 355.218 617.668 355.045 617.73C354.872 617.792 354.682 617.785 354.515 617.71L354.465 617.688C352.954 616.928 351.353 616.361 349.699 615.998C348.059 615.63 346.373 615.51 344.698 615.643C341.363 615.884 338.152 616.999 335.391 618.874L335.323 618.92C335.209 619 335.08 619.057 334.944 619.088C334.808 619.118 334.667 619.122 334.53 619.098C334.393 619.074 334.261 619.024 334.143 618.95C334.026 618.876 333.924 618.78 333.843 618.666C333.763 618.553 333.706 618.425 333.675 618.29C333.644 618.155 333.641 618.015 333.665 617.879C333.688 617.742 333.739 617.612 333.813 617.495C333.888 617.378 333.985 617.276 334.099 617.196L334.125 617.177Z" fill="#0C0C0C"/>
<path d="M305.338 624.469C302.086 623.682 298.683 623.766 295.475 624.711C293.86 625.174 292.325 625.877 290.921 626.795C289.503 627.715 288.206 628.807 287.061 630.047L287.023 630.086C286.894 630.222 286.716 630.301 286.529 630.306C286.341 630.311 286.159 630.242 286.022 630.114C285.886 629.986 285.806 629.809 285.801 629.623C285.796 629.436 285.865 629.255 285.994 629.12C287.182 627.742 288.539 626.518 290.035 625.478C291.538 624.423 293.193 623.598 294.943 623.031C298.482 621.861 302.271 621.656 305.917 622.437C306.053 622.468 306.182 622.524 306.296 622.604C306.41 622.684 306.507 622.785 306.581 622.902C306.656 623.019 306.706 623.15 306.73 623.286C306.754 623.423 306.751 623.562 306.72 623.698C306.689 623.833 306.632 623.96 306.552 624.074C306.472 624.187 306.37 624.283 306.252 624.357C306.134 624.432 306.003 624.482 305.866 624.506C305.728 624.529 305.588 624.526 305.452 624.495H305.423L305.338 624.469Z" fill="#0C0C0C"/>
<path opacity="0.52" d="M326.119 693.116C327.184 693.002 328.236 692.796 329.266 692.504C329.494 692.431 329.685 692.273 329.798 692.063C329.911 691.853 329.938 691.607 329.873 691.378C329.808 691.149 329.656 690.954 329.449 690.834C329.242 690.714 328.996 690.679 328.763 690.735C322.569 692.477 319.061 690.117 318.914 690.016C318.714 689.879 318.468 689.826 318.228 689.868C317.989 689.91 317.776 690.044 317.636 690.241C317.496 690.438 317.439 690.682 317.478 690.92C317.517 691.158 317.649 691.372 317.846 691.514C320.334 692.982 323.258 693.549 326.119 693.116Z" fill="#0C0C0C"/>
<path d="M243.182 644.289L242.951 643.638C264.405 636.094 271.721 621.596 274.081 610.762C275.615 603.513 275.608 596.025 274.06 588.778L274.734 588.605C276.303 595.948 276.313 603.535 274.764 610.882C272.372 621.891 264.951 636.627 243.182 644.289Z" fill="#0C0C0C"/>
<path opacity="0.1" d="M301.297 670.773C306.019 670.29 309.557 667.108 309.201 663.667C308.844 660.225 304.727 657.827 300.005 658.31C295.284 658.794 291.745 661.975 292.102 665.417C292.459 668.858 296.575 671.256 301.297 670.773Z" fill="#0C0C0C"/>
<path opacity="0.1" d="M351.313 657.844C351.68 661.28 355.794 663.675 360.517 663.198C361.333 663.114 362.138 662.946 362.919 662.697C363.205 658.611 363.282 654.677 363.221 651.033C361.917 650.687 360.561 650.586 359.22 650.735C354.497 651.212 350.96 654.393 351.313 657.844Z" fill="#0C0C0C"/>
<path d="M591.493 571.491C591.566 570.477 591.846 569.489 592.317 568.587C592.787 567.684 593.437 566.886 594.227 566.242C595.018 565.597 595.932 565.12 596.915 564.838C597.897 564.556 598.927 564.476 599.942 564.603C601.897 564.916 603.66 565.955 604.874 567.51C606.088 569.065 606.662 571.02 606.481 572.98L605.755 583.057L622.732 552.301C624.56 548.85 629.025 545.773 632.787 548.065C636.65 549.929 639.865 552.896 642.02 556.587C642.059 556.602 653.55 597.032 651.857 600.24L647.328 633.072C643.812 639.713 638.381 645.16 631.729 648.714C625.078 652.268 617.51 653.767 609.995 653.019L585.8 650.61L591.493 571.491Z" fill="#E98862"/>
<g opacity="0.2">
<path d="M619.905 587.117C620.066 587.199 620.254 587.216 620.427 587.163C620.601 587.11 620.746 586.992 620.833 586.834L636.94 557.569C637.029 557.409 637.049 557.22 636.997 557.044C636.945 556.868 636.825 556.72 636.663 556.633C636.501 556.545 636.311 556.525 636.135 556.576C635.958 556.628 635.809 556.747 635.721 556.908L619.607 586.173C619.563 586.252 619.535 586.34 619.525 586.43C619.516 586.52 619.524 586.611 619.55 586.698C619.576 586.785 619.618 586.867 619.676 586.937C619.733 587.008 619.804 587.066 619.884 587.11L619.905 587.117Z" fill="#0C0C0C"/>
</g>
<path d="M618.555 909.35C615.242 909.35 611.937 909.036 608.684 908.413L362.568 861.214L382.305 759.559L566.458 794.875V622.989H670.644V857.585C670.644 864.383 669.296 871.114 666.678 877.395C664.06 883.675 660.223 889.381 655.386 894.188C650.549 898.995 644.806 902.808 638.486 905.41C632.166 908.011 625.392 909.35 618.551 909.35H618.555Z" fill="#1B10F5"/>
<path d="M128.383 1107.06L116.013 1182H424.54L413.008 1106.61L128.383 1107.06Z" fill="#262626"/>
<path d="M283.22 798.436C235.861 796.218 233.868 756.273 233.868 756.273C233.868 756.273 210.402 757.781 194.802 759.878C169.264 763.311 152.417 771.916 139.01 785.24C126.538 797.633 118.945 811.042 126.98 896.652C132.798 958.64 128.383 1107.06 128.383 1107.06L413.008 1106.61C413.008 1106.61 439.565 916.274 441.953 888.367C446.514 835.098 436.797 790.067 425.667 779.007C402.786 756.271 363.394 756.271 343.724 756.273C343.409 756.276 347.715 801.457 283.22 798.436Z" fill="#1B10F5"/>
<path d="M445.99 875.749C445.964 875.75 445.937 875.75 445.911 875.749C445.728 875.729 445.561 875.637 445.446 875.494C445.331 875.351 445.278 875.169 445.298 874.987L449.782 835.178C449.793 835.087 449.821 834.999 449.865 834.92C449.909 834.84 449.969 834.769 450.041 834.712C450.112 834.655 450.195 834.613 450.283 834.588C450.371 834.563 450.463 834.555 450.555 834.565C450.646 834.575 450.734 834.603 450.815 834.647C450.895 834.691 450.966 834.75 451.023 834.822C451.08 834.893 451.123 834.975 451.148 835.062C451.174 835.15 451.182 835.242 451.171 835.332L446.686 875.14C446.666 875.309 446.584 875.465 446.455 875.577C446.327 875.689 446.161 875.751 445.99 875.749Z" fill="#0C0C0C"/>
<path d="M310.647 934.725L347.281 904.558C348.069 903.909 348.981 903.427 349.962 903.14C350.943 902.853 351.973 902.769 352.988 902.89C354.003 903.012 354.983 903.339 355.867 903.849C356.751 904.36 357.522 905.044 358.131 905.861C359.256 907.481 359.721 909.466 359.429 911.414C359.138 913.362 358.113 915.127 356.561 916.352L348.733 922.798L311.89 941.759L310.647 934.725Z" fill="#E98862"/>
<path d="M391.11 978.884L340.908 968.695L361.776 920.965L411.975 931.154L391.11 978.884Z" fill="#1B10F5"/>
<path d="M348.733 922.787L382.832 913.712C386.605 912.637 391.929 913.712 392.862 918.002C393.33 919.628 393.23 921.364 392.578 922.925C391.925 924.487 390.76 925.783 389.271 926.602C389.29 926.635 389.305 926.669 389.317 926.705C389.319 926.733 389.319 926.763 389.317 926.792L395.136 925.135C396.208 924.83 397.335 924.765 398.436 924.945C399.536 925.125 400.582 925.546 401.499 926.176C402.416 926.807 403.181 927.632 403.738 928.592C404.295 929.552 404.631 930.623 404.721 931.728C404.83 933.492 404.321 935.239 403.282 936.673C402.242 938.107 400.736 939.14 399.017 939.596L396.541 940.301C396.529 940.382 396.502 940.46 396.461 940.531C398.229 940.441 399.971 940.973 401.383 942.033C402.795 943.094 403.785 944.614 404.181 946.328C404.555 948.26 404.177 950.26 403.124 951.925C402.072 953.591 400.422 954.797 398.509 955.301L392.422 957.035C392.526 957.071 392.621 957.131 392.697 957.21C392.773 957.29 392.829 957.386 392.861 957.492C392.892 957.619 392.884 957.752 392.84 957.875C394.408 958.223 395.823 959.061 396.878 960.265C397.933 961.469 398.573 962.976 398.705 964.567C398.813 966.331 398.304 968.078 397.264 969.512C396.225 970.946 394.719 971.979 393.001 972.436L341.107 987.214C333.848 989.282 326.133 989.148 318.951 986.83C311.769 984.512 305.448 980.115 300.797 974.204L285.82 955.168L348.733 922.787Z" fill="#E98862"/>
<g opacity="0.2">
<path d="M355.564 935.752C355.615 935.925 355.732 936.071 355.89 936.16C356.048 936.248 356.234 936.271 356.41 936.224L388.834 927.547C388.922 927.524 389.004 927.483 389.077 927.428C389.149 927.372 389.21 927.303 389.255 927.225C389.3 927.146 389.33 927.059 389.342 926.969C389.353 926.879 389.347 926.788 389.323 926.7C389.299 926.613 389.259 926.531 389.203 926.459C389.147 926.387 389.078 926.327 388.999 926.282C388.919 926.237 388.832 926.207 388.742 926.196C388.651 926.184 388.559 926.19 388.471 926.214L356.05 934.891C355.962 934.915 355.879 934.955 355.807 935.01C355.734 935.066 355.674 935.135 355.628 935.213C355.583 935.292 355.553 935.378 355.541 935.468C355.53 935.558 355.536 935.65 355.559 935.737L355.564 935.752Z" fill="#0C0C0C"/>
</g>
<g opacity="0.2">
<path d="M359.017 950.065C359.068 950.238 359.186 950.384 359.344 950.472C359.503 950.56 359.689 950.583 359.864 950.536L396.042 940.858C396.13 940.834 396.213 940.794 396.285 940.739C396.357 940.683 396.418 940.614 396.463 940.536C396.509 940.457 396.539 940.371 396.55 940.281C396.562 940.191 396.556 940.099 396.532 940.012C396.479 939.838 396.361 939.692 396.203 939.601C396.045 939.511 395.858 939.483 395.681 939.525L359.503 949.203C359.415 949.226 359.332 949.267 359.26 949.322C359.188 949.377 359.127 949.446 359.082 949.525C359.036 949.603 359.007 949.69 358.995 949.78C358.983 949.87 358.989 949.961 359.013 950.049L359.017 950.065Z" fill="#0C0C0C"/>
</g>
<g opacity="0.2">
<path d="M362.669 965.588C362.72 965.761 362.837 965.907 362.996 965.996C363.154 966.084 363.341 966.107 363.516 966.06L392.375 958.34C392.465 958.318 392.551 958.28 392.626 958.225C392.702 958.17 392.765 958.101 392.813 958.022C392.861 957.942 392.892 957.854 392.905 957.762C392.918 957.671 392.912 957.577 392.888 957.488C392.863 957.398 392.821 957.315 392.764 957.242C392.706 957.169 392.635 957.108 392.553 957.063C392.471 957.018 392.382 956.99 392.289 956.981C392.196 956.971 392.102 956.98 392.013 957.007L363.155 964.727C363.067 964.75 362.985 964.791 362.912 964.846C362.84 964.901 362.779 964.97 362.734 965.049C362.688 965.127 362.659 965.214 362.647 965.304C362.635 965.394 362.641 965.485 362.665 965.573L362.669 965.588Z" fill="#0C0C0C"/>
</g>
<path d="M337.146 1000.6L101.457 1068.21C91.9637 1070.71 81.9513 1070.5 72.5751 1067.59C63.1988 1064.68 54.8408 1059.2 48.4654 1051.78C42.0899 1044.35 37.9567 1035.29 36.5427 1025.63C35.1286 1015.97 36.4914 1006.11 40.4737 997.189L120.827 806.97C129.425 779.482 176.072 754.019 202.37 765.613C228.668 777.207 227.733 822.819 216.067 848.952L167.739 948.979L314.694 915.22L337.146 1000.6Z" fill="#1B10F5"/>
<path d="M129.418 1060.88C129.25 1060.88 129.088 1060.82 128.961 1060.71C128.834 1060.6 128.751 1060.45 128.728 1060.28C128.705 1060.12 128.742 1059.95 128.834 1059.81C128.925 1059.67 129.065 1059.57 129.226 1059.52L336.302 1000.12L314.192 916.043L167.894 949.651C167.767 949.68 167.635 949.672 167.512 949.629C167.389 949.587 167.281 949.511 167.2 949.41C167.118 949.308 167.066 949.186 167.051 949.057C167.036 948.927 167.058 948.797 167.115 948.679L215.431 848.649C215.516 848.493 215.658 848.376 215.828 848.322C215.997 848.268 216.181 848.28 216.342 848.357C216.503 848.434 216.627 848.569 216.69 848.734C216.754 848.9 216.75 849.083 216.681 849.246L168.992 947.977L314.538 914.541C314.715 914.499 314.901 914.528 315.057 914.621C315.213 914.714 315.326 914.864 315.371 915.039L337.817 1000.43C337.863 1000.61 337.839 1000.79 337.749 1000.95C337.66 1001.1 337.512 1001.22 337.338 1001.27L129.611 1060.85C129.548 1060.87 129.483 1060.88 129.418 1060.88Z" fill="#0C0C0C"/>
<path d="M143.476 954.912C143.304 954.912 143.139 954.85 143.011 954.736C142.883 954.622 142.803 954.465 142.784 954.295C142.766 954.125 142.812 953.955 142.913 953.817C143.014 953.679 143.162 953.583 143.33 953.547L167.592 948.301C167.681 948.282 167.773 948.281 167.863 948.297C167.953 948.313 168.038 948.346 168.115 948.395C168.192 948.444 168.258 948.508 168.311 948.582C168.363 948.657 168.399 948.741 168.419 948.829C168.438 948.918 168.44 949.01 168.424 949.099C168.408 949.188 168.374 949.274 168.324 949.35C168.275 949.426 168.211 949.492 168.136 949.544C168.061 949.596 167.977 949.632 167.887 949.652L143.626 954.897C143.577 954.908 143.526 954.913 143.476 954.912Z" fill="#0C0C0C"/>
<path d="M622.231 491.461L609.629 493.051C604.816 493.659 601.41 498.028 602.021 502.811L615.502 608.278C616.113 613.06 620.511 616.445 625.324 615.838L637.926 614.247C642.739 613.639 646.145 609.27 645.534 604.487L632.053 499.021C631.441 494.238 627.044 490.853 622.231 491.461Z" fill="#292A2E"/>
<path d="M589.672 446.001L585.82 446.487C561.966 449.498 545.085 471.155 548.115 494.859L548.115 494.86C551.145 518.564 572.938 535.339 596.793 532.328L600.644 531.842C624.498 528.831 641.38 507.175 638.35 483.471L638.35 483.47C635.32 459.766 613.526 442.991 589.672 446.001Z" fill="#0CBC8B"/>
<path d="M733.768 498.242L725.441 501.798L718.443 446.91L727.142 447.574C727.528 455.361 728.253 463.566 729.33 472.025C730.502 481.221 732.008 490.034 733.768 498.242Z" fill="#1B10F5"/>
<path d="M759.21 468.267C760.584 479.044 759.432 488.063 756.644 488.421C756.318 488.43 755.993 488.364 755.696 488.228C755.399 488.092 755.138 487.889 754.933 487.635C752.594 485.316 750.21 478.177 749.111 469.552C748.089 461.546 748.462 454.506 749.87 451.271C750.353 450.159 750.96 449.499 751.675 449.409C754.457 449.045 757.836 457.494 759.21 468.267Z" fill="#1B10F5"/>
<path d="M729.349 472.204L729.328 472.024C724.866 437.031 731.134 399.56 737.288 385.458C714.645 406.44 682.1 427.446 652.031 435.27C639.896 438.427 625.099 441.149 602.677 443.946L613.772 530.963C636.189 528.114 651.201 527.084 663.744 527.134C694.826 527.258 731.622 539.531 758.809 554.241C749.315 542.109 733.836 507.376 729.374 472.383L729.349 472.204Z" fill="#0CBC8B"/>
<path d="M632.227 435.616L585.817 441.459C584.068 441.679 582.83 443.267 583.052 445.005L594.457 534.457C594.679 536.195 596.276 537.426 598.025 537.206L644.435 531.363C646.184 531.142 647.422 529.555 647.201 527.817L635.795 438.364C635.574 436.626 633.976 435.396 632.227 435.616Z" fill="#292A2E"/>
<path opacity="0.1" d="M632.227 435.616L585.817 441.459C584.068 441.679 582.83 443.267 583.052 445.005L594.457 534.457C594.679 536.195 596.276 537.426 598.025 537.206L644.435 531.363C646.184 531.142 647.422 529.555 647.201 527.817L635.795 438.364C635.574 436.626 633.976 435.396 632.227 435.616Z" fill="white"/>
<path d="M773.467 466.467C779.468 513.539 774.439 552.926 762.262 554.459C759.835 554.766 757.311 553.551 754.79 551.028C754.776 551.028 754.775 551.015 754.761 551.018C744.541 540.884 734.132 509.704 729.328 472.025C724.866 437.031 726.496 406.286 732.644 392.184C734.757 387.322 737.402 384.44 740.533 384.046C752.713 382.513 767.467 419.412 773.467 466.467Z" fill="#0CBC8B"/>
<path opacity="0.3" d="M773.467 466.467C779.468 513.539 774.439 552.926 762.262 554.459C759.835 554.766 757.311 553.551 754.79 551.028C754.776 551.028 754.775 551.015 754.761 551.018C744.541 540.884 734.132 509.704 729.328 472.025C724.866 437.031 726.496 406.286 732.644 392.184C734.757 387.322 737.402 384.44 740.533 384.046C752.713 382.513 767.467 419.412 773.467 466.467Z" fill="#0C0C0C"/>
<path opacity="0.6" d="M751.678 449.448L756.654 488.466L733.768 498.242C732.008 490.034 730.502 481.222 729.33 472.026C728.252 463.567 727.524 455.362 727.142 447.575L751.678 449.448Z" fill="white"/>
<path d="M759.21 468.267C760.584 479.044 759.432 488.063 756.644 488.421C756.318 488.43 755.993 488.364 755.696 488.228C755.399 488.092 755.138 487.889 754.933 487.635C752.594 485.316 750.21 478.177 749.111 469.552C748.089 461.546 748.462 454.506 749.87 451.271C750.353 450.159 750.96 449.499 751.675 449.409C754.457 449.045 757.836 457.494 759.21 468.267Z" fill="white"/>
<path d="M619.238 590.977C619.236 589.641 619.673 588.341 620.484 587.275C621.294 586.209 622.432 585.436 623.725 585.073C623.678 584.975 623.499 584.769 623.674 584.7L618.608 583.808C617.11 583.578 615.747 582.816 614.77 581.664C613.793 580.513 613.269 579.048 613.294 577.543C613.368 576.056 613.994 574.65 615.052 573.596C616.11 572.543 617.523 571.917 619.019 571.84C618.984 571.792 618.995 571.724 618.977 571.666L616.894 571.299C615.483 571.076 614.194 570.376 613.243 569.316C612.293 568.257 611.74 566.904 611.679 565.486C611.658 564.596 611.837 563.713 612.202 562.9C612.566 562.087 613.108 561.364 613.788 560.785C614.468 560.205 615.268 559.782 616.132 559.547C616.996 559.312 617.902 559.271 618.784 559.426L623.587 560.271C623.587 560.245 623.566 560.225 623.57 560.199C623.574 560.173 623.61 560.147 623.62 560.116C622.356 559.589 621.311 558.651 620.654 557.455C619.998 556.26 619.77 554.878 620.008 553.537C620.394 550.037 624.557 548.734 627.662 549.28L637.311 551.758C638.799 552.141 640.169 552.883 641.3 553.918C642.43 554.954 643.285 556.251 643.789 557.694C648.155 570.186 658.776 603.083 648.865 601.338L624.463 597.042C623.038 596.751 621.751 595.997 620.805 594.898C619.86 593.8 619.308 592.42 619.238 590.977Z" fill="#E98862"/>
</svg>
